General


Format                           : MPEG-4
Format profile                   : Base Media
Codec ID                         : isom
File size                        : 138 MiB
Duration                         : 3mn 24s
Overall bit rate                 : 5 656 Kbps
Encoded date                     : UTC 2012-03-03 15:47:51
Tagged date                      : UTC 2012-03-03 15:47:51

Video
ID                               : 1
Format                           : AVC
Format/Info                      : Advanced Video Codec
Format profile                   : High@L3.0
Format settings, CABAC           : Yes
Format settings, ReFrames        : 2 frames
Format settings, GOP             : M=2, N=15
Codec ID                         : avc1
Codec ID/Info                    : Advanced Video Coding
Duration                         : 3mn 23s
Bit rate mode                    : Variable
Bit rate                         : 5 560 Kbps
Maximum bit rate                 : 9 007 Kbps
Width                            : 720 pixels
Height                           : 480 pixels
Display aspect ratio             : 4:3
Original display aspect ratio    : 4:3
Frame rate mode                  : Constant
Frame rate                       : 29.970 fps
Standard                         : NTSC
Color space                      : YUV
Chroma subsampling               : 4:2:0
Bit depth                        : 8 bits
Scan type                        : Progressive
Bits/(Pixel*Frame)               : 0.537
Stream size                      : 136 MiB (99%)


Audio
ID                               : 2
Format                           : AAC
Format/Info                      : Advanced Audio Codec
Format profile                   : LC
Codec ID                         : 40
Duration                         : 3mn 24s
Bit rate mode                    : Variable
Bit rate                         : 76.9 Kbps
Maximum bit rate                 : 89.0 Kbps
Channel(s)                       : 2 channels
Channel positions                : Front: L R
Sampling rate                    : 48.0 KHz
Compression mode                 : Lossy
Stream size                      : 1.87 MiB (1%)


